<?xml version="1.0" standalone="no"?>
<!DOCTYPE svg PUBLIC "-//W3C//DTD SVG 20010904//EN"
 "http://www.w3.org/TR/2001/REC-SVG-20010904/DTD/svg10.dtd">
<svg version="1.0" xmlns="http://www.w3.org/2000/svg"
 width="821.000000pt" height="821.000000pt" viewBox="0 0 821.000000 821.000000"
 preserveAspectRatio="xMidYMid meet">
<metadata>
Created by potrace 1.14, written by Peter Selinger 2001-2017
</metadata>
<g transform="translate(0.000000,821.000000) scale(0.100000,-0.100000)"
fill="#000000" stroke="none">
<path d="M3878 8181 c-24 -35 -86 -64 -133 -63 -42 1 -82 16 -97 37 -4 6 -19
1 -37 -13 -17 -12 -36 -22 -44 -22 -8 0 -22 -9 -32 -20 -10 -12 -35 -31 -54
-43 -33 -20 -50 -22 -216 -25 -271 -4 -272 -4 -298 12 -22 15 -27 14 -81 -14
-89 -46 -240 -96 -382 -125 -99 -20 -153 -38 -233 -76 -57 -28 -137 -58 -177
-67 l-74 -18 -38 -63 c-67 -113 -187 -218 -312 -271 -89 -37 -148 -50 -275
-57 -116 -6 -122 -8 -170 -41 -27 -19 -104 -61 -170 -93 -140 -69 -154 -80
-232 -179 -51 -65 -133 -192 -133 -206 0 -3 -17 -42 -37 -87 -40 -90 -140
-242 -201 -305 -38 -40 -39 -42 -50 -154 -7 -63 -12 -181 -12 -264 -1 -95 -6
-171 -15 -209 -24 -98 -20 -349 7 -465 20 -87 22 -122 23 -395 0 -340 -11
-466 -55 -595 -50 -148 -54 -185 -36 -333 21 -180 31 -403 30 -642 -1 -187 -3
-206 -28 -290 -15 -49 -48 -139 -73 -198 l-45 -108 12 -207 c18 -290 23 -555
12 -635 -11 -83 -11 -82 94 -128 160 -69 482 -233 559 -283 101 -66 197 -163
261 -264 7 -11 190 -57 342 -88 323 -64 400 -103 664 -333 70 -61 132 -120
138 -130 12 -24 84 -47 170 -57 36 -3 99 -15 140 -26 41 -11 122 -28 181 -39
59 -10 129 -29 156 -40 26 -12 86 -34 133 -49 47 -15 121 -42 165 -60 44 -18
98 -40 120 -48 113 -44 273 -182 346 -297 41 -65 41 -65 323 -65 151 0 232 -5
326 -20 69 -11 160 -20 202 -20 l77 0 36 54 c77 117 262 258 435 333 52 22
163 69 245 103 83 34 176 79 207 101 107 75 290 141 463 169 104 17 122 27
215 115 47 44 114 101 150 127 36 27 99 78 141 115 79 70 121 95 374 221 83
41 187 99 233 129 46 29 123 73 171 98 96 48 74 24 303 326 32 42 85 130 119
195 34 66 75 139 92 163 l30 44 2 246 c1 135 8 291 14 346 14 112 60 263 121
393 36 77 40 92 40 167 0 57 -10 127 -35 236 -39 169 -65 326 -65 390 0 22
-10 77 -21 122 -18 68 -22 117 -24 289 -2 114 -9 267 -15 340 -7 73 -13 234
-14 358 l-2 225 -61 150 c-33 83 -63 164 -67 180 -15 70 -36 276 -36 348 0 45
-8 112 -20 156 -31 121 -41 249 -37 473 l4 208 -32 32 c-18 18 -58 49 -89 68
-31 19 -103 80 -159 136 l-102 101 -165 27 c-109 18 -205 41 -285 68 -188 64
-614 238 -801 326 -156 75 -176 82 -264 91 -89 10 -172 27 -363 72 -43 10
-117 35 -165 55 -48 20 -125 50 -172 65 -116 39 -175 66 -241 112 -55 37 -59
38 -96 27 -27 -8 -106 -11 -245 -9 -204 4 -205 4 -244 31 -36 25 -127 52 -138
41 -13 -14 -98 -3 -125 16 -36 26 -37 26 -53 2z"/>
</g>
</svg>
